<svg width="62" height="62" viewBox="0 0 62 62" fill="none" xmlns="http://www.w3.org/2000/svg">
<path d="M42.1406 29.0625H32.9375V19.8594C32.9375 19.593 32.7195 19.375 32.4531 19.375H29.5469C29.2805 19.375 29.0625 19.593 29.0625 19.8594V29.0625H19.8594C19.593 29.0625 19.375 29.2805 19.375 29.5469V32.4531C19.375 32.7195 19.593 32.9375 19.8594 32.9375H29.0625V42.1406C29.0625 42.407 29.2805 42.625 29.5469 42.625H32.4531C32.7195 42.625 32.9375 42.407 32.9375 42.1406V32.9375H42.1406C42.407 32.9375 42.625 32.7195 42.625 32.4531V29.5469C42.625 29.2805 42.407 29.0625 42.1406 29.0625Z" fill="white"/>
<path d="M31 3.875C16.0207 3.875 3.875 16.0207 3.875 31C3.875 45.9793 16.0207 58.125 31 58.125C45.9793 58.125 58.125 45.9793 58.125 31C58.125 16.0207 45.9793 3.875 31 3.875ZM31 53.5234C18.5637 53.5234 8.47656 43.4363 8.47656 31C8.47656 18.5637 18.5637 8.47656 31 8.47656C43.4363 8.47656 53.5234 18.5637 53.5234 31C53.5234 43.4363 43.4363 53.5234 31 53.5234Z" fill="white"/>
</svg>
