<svg width="375" height="667" viewBox="0 0 375 667" fill="none" xmlns="http://www.w3.org/2000/svg">
<rect width="375" height="667" fill="#F2F2F2"/>
<mask id="mask0" mask-type="alpha" maskUnits="userSpaceOnUse" x="0" y="0" width="375" height="667">
<rect width="375" height="667" fill="#242424"/>
</mask>
<g mask="url(#mask0)">
<path fill-rule="evenodd" clip-rule="evenodd" d="M110.399 -59.1269C154.623 -56.6885 202.147 -35.6438 224.33 2.6914C245.993 40.1269 229.722 87.1805 219.364 129.174C211.56 160.811 186.845 182.979 172.628 212.299C155.34 247.953 159.413 295.821 127.303 319.037C93.2735 343.64 46.1914 342.624 5.24318 333.321C-36.7795 323.773 -78.2153 302.883 -101.992 266.942C-124.835 232.415 -118.694 188.256 -118.113 146.86C-117.573 108.432 -122.046 66.6312 -98.7497 36.0649C-75.9984 6.21354 -33.0161 5.93342 1.14506 -9.61464C38.4492 -26.5932 69.4751 -61.3834 110.399 -59.1269Z" fill="#E4D1C3"/>
<path fill-rule="evenodd" clip-rule="evenodd" d="M286.585 430.967C334.428 418.374 386.182 390.379 430.741 411.866C475.182 433.296 489.405 489.568 505.083 536.329C519.509 579.357 530.208 625.757 517.01 669.176C504.562 710.128 466.595 735.596 435.55 765.076C407.511 791.702 379.596 816.901 344.451 833.037C304.647 851.314 261.973 875.152 219.548 864.254C176.893 853.297 150.294 812.131 124.412 776.515C100.324 743.368 87.2317 705.688 75.7421 666.362C62.4466 620.855 28.5713 570.195 52.1083 529.036C76.0869 487.104 139.585 495.413 184.161 476.769C219.378 462.04 249.668 440.684 286.585 430.967Z" fill="#E4D1C3"/>
</g>
</svg>
