<svg width="27" height="27" viewBox="0 0 27 27" fill="none" xmlns="http://www.w3.org/2000/svg">
<path d="M13.5 1.6875C6.97676 1.6875 1.6875 6.97676 1.6875 13.5C1.6875 20.0232 6.97676 25.3125 13.5 25.3125C20.0232 25.3125 25.3125 20.0232 25.3125 13.5C25.3125 6.97676 20.0232 1.6875 13.5 1.6875ZM14.3438 19.1953C14.3438 19.3113 14.2488 19.4062 14.1328 19.4062H12.8672C12.7512 19.4062 12.6562 19.3113 12.6562 19.1953V12.0234C12.6562 11.9074 12.7512 11.8125 12.8672 11.8125H14.1328C14.2488 11.8125 14.3438 11.9074 14.3438 12.0234V19.1953ZM13.5 10.125C13.1688 10.1182 12.8535 9.98193 12.6216 9.74531C12.3898 9.5087 12.2599 9.19064 12.2599 8.85938C12.2599 8.52811 12.3898 8.21005 12.6216 7.97344C12.8535 7.73682 13.1688 7.60051 13.5 7.59375C13.8312 7.60051 14.1465 7.73682 14.3784 7.97344C14.6102 8.21005 14.7401 8.52811 14.7401 8.85938C14.7401 9.19064 14.6102 9.5087 14.3784 9.74531C14.1465 9.98193 13.8312 10.1182 13.5 10.125Z" fill="#9e5e25"/>
</svg>
